<svg width="42" height="41" viewBox="0 0 42 41" fill="none" xmlns="http://www.w3.org/2000/svg">
<path d="M41.5024 4.25C41.5024 1.90279 39.5997 0 37.2524 0H4.75244C2.40523 0 0.502441 1.90279 0.502441 4.25V36.75C0.502441 39.0972 2.40523 41 4.75244 41H37.2524C39.5997 41 41.5024 39.0972 41.5024 36.75V4.25Z" fill="#7289DA"/>
<path d="M30.6542 13.2835C29.0448 12.5333 27.3023 11.9887 25.4872 11.6741C25.4713 11.6736 25.4555 11.6766 25.4409 11.6829C25.4262 11.6891 25.4131 11.6986 25.4025 11.7104C25.1847 12.1098 24.9306 12.6301 24.7612 13.0294C22.836 12.739 20.8781 12.739 18.9529 13.0294C18.7835 12.618 18.5293 12.1098 18.2994 11.7104C18.2873 11.6862 18.251 11.6741 18.2147 11.6741C16.3996 11.9887 14.6692 12.5333 13.0477 13.2835C13.0356 13.2835 13.0235 13.2956 13.0114 13.3077C9.72003 18.2327 8.81248 23.0246 9.2602 27.7681C9.2602 27.7923 9.2723 27.8165 9.29651 27.8286C11.4746 29.4258 13.5681 30.3939 15.6373 31.0352C15.6736 31.0473 15.7099 31.0352 15.722 31.011C16.206 30.3455 16.6416 29.6437 17.0167 28.9055C17.0409 28.8571 17.0167 28.8087 16.9683 28.7966C16.2786 28.5304 15.6252 28.2158 14.9838 27.8528C14.9354 27.8286 14.9354 27.756 14.9717 27.7197C15.1048 27.6228 15.2379 27.5139 15.3711 27.4171C15.3953 27.3929 15.4316 27.3929 15.4558 27.405C19.6184 29.3048 24.1078 29.3048 28.222 27.405C28.2462 27.3929 28.2825 27.3929 28.3067 27.4171C28.4398 27.526 28.5729 27.6228 28.706 27.7318C28.7544 27.7681 28.7544 27.8407 28.6939 27.8649C28.0647 28.24 27.3991 28.5425 26.7094 28.8087C26.661 28.8208 26.6489 28.8813 26.661 28.9176C27.0482 29.6558 27.4839 30.3576 27.9558 31.0231C27.9921 31.0352 28.0284 31.0473 28.0647 31.0352C30.146 30.3939 32.2394 29.4258 34.4175 27.8286C34.4417 27.8165 34.4538 27.7923 34.4538 27.7681C34.9863 22.2864 33.5705 17.5309 30.7026 13.3077C30.6905 13.2956 30.6784 13.2835 30.6542 13.2835ZM17.646 24.876C16.3996 24.876 15.359 23.7264 15.359 22.3106C15.359 20.8949 16.3754 19.7453 17.646 19.7453C18.9287 19.7453 19.9451 20.907 19.933 22.3106C19.933 23.7264 18.9166 24.876 17.646 24.876ZM26.0802 24.876C24.8338 24.876 23.7931 23.7264 23.7931 22.3106C23.7931 20.8949 24.8096 19.7453 26.0802 19.7453C27.3628 19.7453 28.3793 20.907 28.3672 22.3106C28.3672 23.7264 27.3628 24.876 26.0802 24.876Z" fill="white"/>
</svg>
