<svg width="27" height="21" viewBox="0 0 27 21" fill="none" xmlns="http://www.w3.org/2000/svg">
<path d="M22.1511 2.28303C20.5417 1.53279 18.7992 0.988258 16.9841 0.67364C16.9682 0.673131 16.9524 0.676117 16.9377 0.682389C16.9231 0.688661 16.91 0.698067 16.8994 0.709942C16.6816 1.10926 16.4275 1.62959 16.2581 2.02892C14.3328 1.7385 12.375 1.7385 10.4497 2.02892C10.2803 1.61749 10.0262 1.10926 9.79629 0.709942C9.78419 0.685741 9.74789 0.67364 9.71159 0.67364C7.89648 0.988258 6.16608 1.53279 4.54459 2.28303C4.53249 2.28303 4.52039 2.29513 4.50829 2.30723C1.2169 7.23222 0.30935 12.0241 0.757075 16.7676C0.757075 16.7918 0.769176 16.816 0.793377 16.8281C2.9715 18.4254 5.06492 19.3934 7.13414 20.0348C7.17044 20.0469 7.20674 20.0348 7.21885 20.0105C7.70287 19.345 8.1385 18.6432 8.51362 17.905C8.53782 17.8566 8.51362 17.8082 8.46522 17.7961C7.77548 17.5299 7.12204 17.2153 6.4807 16.8523C6.4323 16.8281 6.4323 16.7555 6.4686 16.7192C6.60171 16.6224 6.73482 16.5134 6.86793 16.4166C6.89213 16.3924 6.92843 16.3924 6.95263 16.4045C11.1153 18.3044 15.6046 18.3044 19.7189 16.4045C19.7431 16.3924 19.7794 16.3924 19.8036 16.4166C19.9367 16.5256 20.0698 16.6224 20.2029 16.7313C20.2513 16.7676 20.2513 16.8402 20.1908 16.8644C19.5616 17.2395 18.896 17.542 18.2063 17.8082C18.1579 17.8203 18.1458 17.8808 18.1579 17.9171C18.5451 18.6553 18.9807 19.3571 19.4526 20.0227C19.4889 20.0348 19.5252 20.0469 19.5616 20.0348C21.6429 19.3934 23.7363 18.4254 25.9144 16.8281C25.9386 16.816 25.9507 16.7918 25.9507 16.7676C26.4831 11.2859 25.0674 6.53038 22.1995 2.30723C22.1874 2.29513 22.1753 2.28303 22.1511 2.28303ZM9.14286 13.8755C7.89648 13.8755 6.85582 12.7259 6.85582 11.3102C6.85582 9.89437 7.87228 8.7448 9.14286 8.7448C10.4255 8.7448 11.442 9.90647 11.4299 11.3102C11.4299 12.7259 10.4134 13.8755 9.14286 13.8755ZM17.577 13.8755C16.3307 13.8755 15.29 12.7259 15.29 11.3102C15.29 9.89437 16.3065 8.7448 17.577 8.7448C18.8597 8.7448 19.8762 9.90647 19.8641 11.3102C19.8641 12.7259 18.8597 13.8755 17.577 13.8755Z" fill="white"/>
</svg>
