<svg width="17" height="9" viewBox="0 0 17 9" fill="none" xmlns="http://www.w3.org/2000/svg">
<path d="M14.9307 3.12695H2.09863C1.37598 3.12695 0.858398 2.99023 0.545898 2.7168C0.243164 2.43359 0.0917969 2.06738 0.0917969 1.61816C0.0917969 1.17871 0.243164 0.822266 0.545898 0.548828C0.858398 0.265625 1.37598 0.124023 2.09863 0.124023H14.9307C15.6533 0.124023 16.166 0.265625 16.4688 0.548828C16.7812 0.822266 16.9375 1.18359 16.9375 1.63281C16.9375 2.07227 16.7812 2.43359 16.4688 2.7168C16.166 2.99023 15.6533 3.12695 14.9307 3.12695ZM14.9307 8.78125H2.09863C1.37598 8.78125 0.858398 8.64453 0.545898 8.37109C0.243164 8.09766 0.0917969 7.73633 0.0917969 7.28711C0.0917969 6.83789 0.243164 6.47656 0.545898 6.20312C0.858398 5.91992 1.37598 5.77832 2.09863 5.77832H14.9307C15.6533 5.77832 16.166 5.91992 16.4688 6.20312C16.7812 6.47656 16.9375 6.83789 16.9375 7.28711C16.9375 7.73633 16.7812 8.09766 16.4688 8.37109C16.166 8.64453 15.6533 8.78125 14.9307 8.78125Z" fill="white"/>
</svg>
