<svg width="17" height="18" viewBox="0 0 17 18" fill="none" xmlns="http://www.w3.org/2000/svg">
<path d="M9.99414 10.9688V15.9932C9.99414 16.7158 9.85742 17.2334 9.58398 17.5459C9.31055 17.8486 8.94922 18 8.5 18C8.05078 18 7.68457 17.8486 7.40137 17.5459C7.12793 17.2334 6.99121 16.7158 6.99121 15.9932V10.9688H2.69922C1.97656 10.9688 1.45898 10.832 1.14648 10.5586C0.84375 10.2754 0.692383 9.90918 0.692383 9.45996C0.692383 9.01074 0.84375 8.64941 1.14648 8.37598C1.45898 8.09277 1.97656 7.95605 2.69922 7.96582H6.99121V2.95605C6.99121 2.24316 7.12793 1.73047 7.40137 1.41797C7.68457 1.10547 8.05078 0.949219 8.5 0.949219C8.94922 0.949219 9.31055 1.10547 9.58398 1.41797C9.86719 1.7207 10.0088 2.2334 10.0088 2.95605L9.99414 7.96582H14.2861C15.0088 7.96582 15.5215 8.10254 15.8242 8.37598C16.1367 8.64941 16.293 9.01074 16.293 9.45996C16.293 9.90918 16.1367 10.2754 15.8242 10.5586C15.5215 10.832 15.0088 10.9688 14.2861 10.9688H9.99414Z" fill="white"/>
</svg>
