<svg width="21" height="16" viewBox="0 0 21 16" fill="none" xmlns="http://www.w3.org/2000/svg">
<path d="M20.0882 2.0013C19.3824 2.32214 18.6215 2.53297 17.8332 2.6338C18.6399 2.14797 19.2632 1.37797 19.5565 0.452136C18.7957 0.910469 17.9524 1.2313 17.0632 1.41464C16.339 0.626303 15.3215 0.167969 14.1665 0.167969C12.0124 0.167969 10.2524 1.92797 10.2524 4.10047C10.2524 4.41214 10.289 4.71464 10.3532 4.99881C7.08987 4.83381 4.18403 3.2663 2.24986 0.892136C1.9107 1.46964 1.7182 2.14797 1.7182 2.86297C1.7182 4.22881 2.4057 5.43881 3.46903 6.12631C2.8182 6.12631 2.2132 5.94297 1.68153 5.66797V5.69547C1.68153 7.60214 3.0382 9.19714 4.83487 9.55464C4.25803 9.7125 3.65245 9.73446 3.0657 9.61881C3.31467 10.4002 3.80227 11.084 4.45996 11.574C5.11765 12.064 5.91236 12.3355 6.73237 12.3505C5.34236 13.4509 3.61936 14.0457 1.84653 14.0371C1.53486 14.0371 1.2232 14.0188 0.91153 13.9821C2.6532 15.1005 4.72487 15.7513 6.9432 15.7513C14.1665 15.7513 18.1357 9.75631 18.1357 4.55881C18.1357 4.38464 18.1357 4.21964 18.1265 4.04547C18.8965 3.49547 19.5565 2.7988 20.0882 2.0013Z" fill="#1D9BF0"/>
</svg>
