<svg width="41" height="41" viewBox="0 0 41 41" fill="none" xmlns="http://www.w3.org/2000/svg">
<path d="M41 4.25C41 1.90279 39.0972 0 36.75 0H4.25C1.90279 0 0 1.90279 0 4.25V36.75C0 39.0972 1.90279 41 4.25 41H36.75C39.0972 41 41 39.0972 41 36.75V4.25Z" fill="#1D9BF0"/>
<path d="M32.4132 13.6664C31.5363 14.0651 30.591 14.327 29.6116 14.4523C30.6138 13.8487 31.3882 12.892 31.7527 11.7417C30.8074 12.3112 29.7596 12.7098 28.6549 12.9376C27.7552 11.9581 26.491 11.3887 25.056 11.3887C22.3796 11.3887 20.193 13.5753 20.193 16.2745C20.193 16.6617 20.2385 17.0376 20.3182 17.3906C16.2638 17.1856 12.6535 15.2381 10.2505 12.2884C9.82907 13.0059 9.5899 13.8487 9.5899 14.737C9.5899 16.4339 10.4441 17.9373 11.7652 18.7914C10.9566 18.7914 10.2049 18.5637 9.54434 18.222V18.2562C9.54434 20.6251 11.2299 22.6067 13.4621 23.0509C12.7454 23.247 11.9931 23.2743 11.2641 23.1306C11.5734 24.1015 12.1792 24.951 12.9963 25.5598C13.8135 26.1685 14.8008 26.5059 15.8196 26.5245C14.0926 27.8917 11.952 28.6307 9.74934 28.6201C9.36212 28.6201 8.9749 28.5973 8.58768 28.5517C10.7516 29.9412 13.3255 30.7498 16.0816 30.7498C25.056 30.7498 29.9874 23.3014 29.9874 16.8439C29.9874 16.6276 29.9874 16.4226 29.976 16.2062C30.9327 15.5228 31.7527 14.6573 32.4132 13.6664Z" fill="white"/>
</svg>
