<svg width="25" height="20" viewBox="0 0 25 20" fill="none" xmlns="http://www.w3.org/2000/svg">
<path d="M24.4125 2.66669C23.5355 3.06531 22.5903 3.32725 21.6108 3.45253C22.613 2.84892 23.3875 1.89225 23.7519 0.741972C22.8066 1.31142 21.7589 1.71003 20.6541 1.93781C19.7544 0.958361 18.4903 0.388916 17.0553 0.388916C14.3789 0.388916 12.1922 2.57558 12.1922 5.27475C12.1922 5.66197 12.2378 6.03781 12.3175 6.39086C8.26303 6.18586 4.65275 4.23836 2.24969 1.28864C1.8283 2.00614 1.58914 2.84892 1.58914 3.73725C1.58914 5.4342 2.4433 6.93753 3.76441 7.7917C2.9558 7.7917 2.20414 7.56392 1.54358 7.22225V7.25642C1.54358 9.62531 3.22914 11.607 5.46136 12.0511C4.74469 12.2473 3.9923 12.2746 3.2633 12.1309C3.57263 13.1017 4.17844 13.9513 4.99557 14.56C5.8127 15.1688 6.80006 15.5062 7.81886 15.5248C6.09188 16.8919 3.95119 17.6309 1.74858 17.6203C1.36136 17.6203 0.974136 17.5975 0.586914 17.552C2.7508 18.9414 5.32469 19.75 8.0808 19.75C17.0553 19.75 21.9866 12.3017 21.9866 5.8442C21.9866 5.62781 21.9866 5.42281 21.9753 5.20642C22.9319 4.52308 23.7519 3.65753 24.4125 2.66669Z" fill="white"/>
</svg>
